<?xml version="1.0" encoding="UTF-8" standalone="no"?>
<!-- Created with Inkscape (http://www.inkscape.org/) -->

<svg
   width="600"
   height="600"
   viewBox="0 0 158.75 158.75"
   version="1.1"
   id="svg1"
   inkscape:version="1.3.2 (091e20ef0f, 2023-11-25, custom)"
   sodipodi:docname="anzen.svg"
   inkscape:export-filename="anzen.png"
   inkscape:export-xdpi="96"
   inkscape:export-ydpi="96"
   xmlns:inkscape="http://www.inkscape.org/namespaces/inkscape"
   xmlns:sodipodi="http://sodipodi.sourceforge.net/DTD/sodipodi-0.dtd"
   xmlns:xlink="http://www.w3.org/1999/xlink"
   xmlns="http://www.w3.org/2000/svg"
   xmlns:svg="http://www.w3.org/2000/svg">
  <sodipodi:namedview
     id="namedview1"
     pagecolor="#ffffff"
     bordercolor="#000000"
     borderopacity="0.25"
     inkscape:showpageshadow="2"
     inkscape:pageopacity="0.0"
     inkscape:pagecheckerboard="0"
     inkscape:deskcolor="#d1d1d1"
     inkscape:document-units="mm"
     inkscape:zoom="1.4106917"
     inkscape:cx="206.99066"
     inkscape:cy="326.08117"
     inkscape:window-width="1918"
     inkscape:window-height="1058"
     inkscape:window-x="0"
     inkscape:window-y="20"
     inkscape:window-maximized="1"
     inkscape:current-layer="layer1" />
  <defs
     id="defs1">
    <linearGradient
       id="linearGradient13"
       inkscape:collect="always">
      <stop
         style="stop-color:#8cff79;stop-opacity:1;"
         offset="0"
         id="stop14" />
      <stop
         style="stop-color:#c3ff6d;stop-opacity:1;"
         offset="1"
         id="stop15" />
    </linearGradient>
    <linearGradient
       inkscape:collect="always"
       xlink:href="#linearGradient13"
       id="linearGradient15"
       x1="37.029415"
       y1="10.115326"
       x2="108.65988"
       y2="151.6899"
       gradientUnits="userSpaceOnUse"
       gradientTransform="translate(1.2467149,-0.64421945)" />
  </defs>
  <g
     inkscape:label="Layer 1"
     inkscape:groupmode="layer"
     id="layer1">
    <rect
       style="fill:url(#linearGradient15);fill-opacity:1;fill-rule:nonzero;stroke:none;stroke-width:0.600001;stroke-linejoin:round;stroke-miterlimit:10;stroke-opacity:1"
       id="rect1"
       width="162.70253"
       height="164.84329"
       x="-1.7931764"
       y="-3.1049592" />
    <path
       id="text1"
       style="font-size:35.2778px;line-height:0;font-family:'Zen Maru Gothic';-inkscape-font-specification:'Zen Maru Gothic';letter-spacing:-4.35769px;stroke-width:0.6;stroke-linejoin:round;stroke-miterlimit:10"
       sodipodi:type="inkscape:offset"
       inkscape:radius="0.72641623"
       inkscape:original="M 32.376953 42.136719 C 32.071212 42.066163 31.788001 42.112714 31.529297 42.277344 C 31.270596 42.441974 31.119306 42.676681 31.072266 42.982422 C 30.907636 43.687978 30.76603 44.382416 30.648438 45.064453 L 30.294922 47.111328 C 27.660846 47.252439 25.298227 47.287353 23.205078 47.216797 C 22.899337 47.193279 22.627763 47.28638 22.392578 47.498047 C 22.180913 47.686195 22.064536 47.946131 22.041016 48.275391 C 22.017497 48.581132 22.110599 48.850752 22.322266 49.085938 C 22.533932 49.297603 22.793868 49.415933 23.099609 49.439453 C 25.145721 49.510008 27.450151 49.475096 30.013672 49.333984 C 29.919598 50.298244 29.836181 51.250665 29.765625 52.191406 C 29.718585 53.132148 29.706949 54.047702 29.730469 54.941406 C 28.131209 55.623444 26.67446 56.529313 25.357422 57.658203 C 24.063903 58.763574 23.028065 60.045757 22.251953 61.503906 C 21.49936 62.962056 21.123047 64.562363 21.123047 66.302734 C 21.123047 68.019587 21.557549 69.276541 22.427734 70.076172 C 23.321439 70.875802 24.487244 71.275391 25.921875 71.275391 C 27.168357 71.275391 28.390398 70.994132 29.589844 70.429688 C 30.812808 69.841724 31.965022 69.042547 33.046875 68.03125 C 33.164468 68.19588 33.27116 68.358808 33.365234 68.523438 C 33.482827 68.688068 33.587567 68.864586 33.681641 69.052734 C 33.846271 69.311438 34.080978 69.476319 34.386719 69.546875 C 34.69246 69.593912 34.975672 69.535723 35.234375 69.371094 C 35.493076 69.206464 35.646319 68.971756 35.693359 68.666016 C 35.763915 68.360274 35.717364 68.077063 35.552734 67.818359 L 35.058594 67.042969 L 34.634766 66.265625 C 35.716618 64.925068 36.645764 63.361627 37.421875 61.574219 C 38.221505 59.78681 38.80925 57.858694 39.185547 55.789062 C 40.690734 56.047767 41.912774 56.517181 42.853516 57.199219 C 43.817775 57.881256 44.52385 58.694024 44.970703 59.634766 C 45.417555 60.551989 45.640625 61.504409 45.640625 62.492188 C 45.640625 63.479966 45.417555 64.467299 44.970703 65.455078 C 44.52385 66.442856 43.817775 67.360364 42.853516 68.207031 C 41.912774 69.03018 40.690734 69.71298 39.185547 70.253906 C 38.879806 70.34798 38.656736 70.536137 38.515625 70.818359 C 38.398031 71.100581 38.386395 71.393477 38.480469 71.699219 C 38.598061 71.981441 38.786218 72.181235 39.044922 72.298828 C 39.327145 72.439942 39.620041 72.463215 39.925781 72.369141 C 41.783745 71.710621 43.288998 70.853256 44.441406 69.794922 C 45.617333 68.713069 46.476652 67.535626 47.017578 66.265625 C 47.582023 64.995624 47.863281 63.73867 47.863281 62.492188 C 47.863281 60.822371 47.428779 59.305481 46.558594 57.941406 C 45.711926 56.577331 44.464657 55.494942 42.818359 54.695312 C 41.172062 53.872164 39.162481 53.460938 36.787109 53.460938 C 35.16433 53.460938 33.552385 53.695645 31.953125 54.166016 C 31.953125 52.590274 32.059818 50.92014 32.271484 49.15625 C 33.63556 49.038657 34.964293 48.910642 36.257812 48.769531 C 37.57485 48.62842 38.773617 48.463539 39.855469 48.275391 C 40.184729 48.228354 40.431074 48.07511 40.595703 47.816406 C 40.760336 47.557702 40.820478 47.274491 40.773438 46.96875 C 40.726401 46.663009 40.573157 46.428301 40.314453 46.263672 C 40.055749 46.099039 39.772538 46.040851 39.466797 46.087891 C 38.502537 46.25252 37.422102 46.405764 36.222656 46.546875 C 35.04673 46.687986 33.834373 46.816001 32.587891 46.933594 C 32.681965 46.369149 32.77702 45.793041 32.871094 45.205078 C 32.988686 44.617115 33.118654 44.02937 33.259766 43.441406 C 33.306802 43.135665 33.246661 42.866045 33.082031 42.630859 C 32.917401 42.372155 32.682694 42.207274 32.376953 42.136719 z M 109.81055 42.771484 C 109.57536 42.771484 109.36393 42.878176 109.17578 43.089844 C 109.01119 43.277992 108.95105 43.501062 108.99805 43.759766 C 109.04509 43.994951 109.15178 44.183107 109.31641 44.324219 C 109.73974 44.629959 110.23243 45.052824 110.79688 45.59375 C 111.38484 46.134677 111.84457 46.604092 112.17383 47.003906 C 112.36197 47.192054 112.58505 47.298746 112.84375 47.322266 C 113.10246 47.322266 113.32553 47.240802 113.51367 47.076172 C 113.70182 46.888024 113.79687 46.663001 113.79688 46.404297 C 113.82039 46.122074 113.73697 45.887367 113.54883 45.699219 C 113.31364 45.440515 113.00911 45.135981 112.63281 44.783203 C 112.25651 44.430425 111.86856 44.089025 111.46875 43.759766 C 111.09245 43.430506 110.76269 43.170571 110.48047 42.982422 C 110.29232 42.817791 110.06925 42.747964 109.81055 42.771484 z M 65.166016 43.935547 C 64.860274 44.006102 64.637205 44.182621 64.496094 44.464844 C 64.096279 45.217436 63.57836 46.228046 62.943359 47.498047 C 62.308359 48.744529 61.604236 50.15668 60.828125 51.732422 C 60.075532 53.284645 59.287992 54.894637 58.464844 56.564453 C 57.665214 58.234269 56.875721 59.86949 56.099609 61.46875 C 55.347016 63.068011 54.666169 64.526712 54.054688 65.84375 C 53.443205 67.160787 52.936924 68.241223 52.537109 69.087891 C 52.419515 69.370113 52.407879 69.664962 52.501953 69.970703 C 52.619546 70.252926 52.819341 70.45272 53.101562 70.570312 C 53.383785 70.687906 53.666996 70.699543 53.949219 70.605469 C 54.254959 70.487876 54.466392 70.288082 54.583984 70.005859 C 54.889726 69.300303 55.266039 68.429347 55.712891 67.394531 C 56.183261 66.359716 56.664314 65.302556 57.158203 64.220703 C 58.122463 62.198109 59.251403 60.72777 60.544922 59.810547 C 61.838441 58.893324 63.155538 58.435547 64.496094 58.435547 C 65.67202 58.435547 66.413009 58.774994 66.71875 59.457031 C 67.024491 60.139069 66.97794 61.186544 66.578125 62.597656 C 66.107754 64.29099 66.001062 65.689551 66.259766 66.794922 C 66.541988 67.900293 67.106458 68.736337 67.953125 69.300781 C 68.823311 69.841707 69.905699 70.111328 71.199219 70.111328 C 72.986627 70.111328 74.503518 69.523583 75.75 68.347656 C 76.996483 67.148212 78.090509 65.301558 79.03125 62.808594 C 79.148841 62.502852 79.137205 62.209956 78.996094 61.927734 C 78.878501 61.645512 78.678707 61.457355 78.396484 61.363281 C 78.114262 61.24569 77.831051 61.257326 77.548828 61.398438 C 77.266605 61.51603 77.066811 61.715825 76.949219 61.998047 C 76.12607 64.208789 75.257066 65.748955 74.339844 66.619141 C 73.422621 67.465808 72.375145 67.888672 71.199219 67.888672 C 69.976255 67.888672 69.142165 67.535634 68.695312 66.830078 C 68.248462 66.101003 68.260098 64.8906 68.730469 63.197266 C 69.34195 61.010042 69.293447 59.32827 68.587891 58.152344 C 67.882335 56.952898 66.541963 56.353516 64.566406 56.353516 C 63.837332 56.353516 63.084705 56.518397 62.308594 56.847656 C 61.532482 57.153398 60.779856 57.587899 60.050781 58.152344 C 60.897449 56.411972 61.733492 54.718563 62.556641 53.072266 C 63.379789 51.425968 64.132415 49.943991 64.814453 48.626953 C 65.49649 47.286397 66.037685 46.26415 66.4375 45.558594 C 66.578614 45.29989 66.601886 45.03027 66.507812 44.748047 C 66.437257 44.442306 66.272376 44.205646 66.013672 44.041016 C 65.754968 43.876386 65.471756 43.841473 65.166016 43.935547 z M 127.00781 43.935547 C 126.70207 44.006102 126.47705 44.182621 126.33594 44.464844 C 125.93612 45.217436 125.42016 46.228046 124.78516 47.498047 C 124.15016 48.744529 123.44408 50.15668 122.66797 51.732422 C 121.91538 53.284645 121.12783 54.894637 120.30469 56.564453 C 119.50505 58.234269 118.71751 59.86949 117.94141 61.46875 C 117.18881 63.068011 116.50602 64.526712 115.89453 65.84375 C 115.28305 67.160787 114.77677 68.241223 114.37695 69.087891 C 114.25935 69.370113 114.24772 69.664962 114.3418 69.970703 C 114.45939 70.252926 114.65919 70.45272 114.94141 70.570312 C 115.22363 70.687906 115.50684 70.699543 115.78906 70.605469 C 116.0948 70.487876 116.30623 70.288082 116.42383 70.005859 C 116.72957 69.300303 117.10588 68.429347 117.55273 67.394531 C 118.02311 66.359716 118.50416 65.302556 118.99805 64.220703 C 119.96231 62.198109 121.09125 60.72777 122.38477 59.810547 C 123.67829 58.893324 124.99538 58.435547 126.33594 58.435547 C 127.51186 58.435547 128.25285 58.774994 128.55859 59.457031 C 128.86434 60.139069 128.81779 61.186544 128.41797 62.597656 C 127.9476 64.29099 127.84091 65.689551 128.09961 66.794922 C 128.38184 67.900293 128.9463 68.736337 129.79297 69.300781 C 130.66316 69.841707 131.74555 70.111328 133.03906 70.111328 C 134.82648 70.111328 136.34336 69.523583 137.58984 68.347656 C 138.83632 67.148212 139.93035 65.301558 140.87109 62.808594 C 140.98867 62.502852 140.97705 62.209956 140.83594 61.927734 C 140.71834 61.645512 140.51855 61.457355 140.23633 61.363281 C 139.9541 61.24569 139.67089 61.257326 139.38867 61.398438 C 139.10645 61.51603 138.90666 61.715825 138.78906 61.998047 C 137.96591 64.208789 137.09691 65.748955 136.17969 66.619141 C 135.26246 67.465808 134.21499 67.888672 133.03906 67.888672 C 131.8161 67.888672 130.98201 67.535634 130.53516 66.830078 C 130.08832 66.101003 130.09994 64.8906 130.57031 63.197266 C 131.18179 61.010042 131.13524 59.32827 130.42969 58.152344 C 129.72413 56.952898 128.3818 56.353516 126.40625 56.353516 C 125.67718 56.353516 124.92455 56.518397 124.14844 56.847656 C 123.37232 57.153398 122.62165 57.587899 121.89258 58.152344 C 122.73924 56.411972 123.57334 54.718563 124.39648 53.072266 C 125.21964 51.425968 125.97226 49.943991 126.6543 48.626953 C 127.33634 47.286397 127.87753 46.26415 128.27734 45.558594 C 128.41848 45.29989 128.44173 45.03027 128.34766 44.748047 C 128.2771 44.442306 128.11222 44.205646 127.85352 44.041016 C 127.59481 43.876386 127.31355 43.841473 127.00781 43.935547 z M 102.89453 44.748047 C 102.58879 44.748047 102.31917 44.852786 102.08398 45.064453 C 101.87234 45.27612 101.754 45.534103 101.73047 45.839844 C 101.70695 46.733548 101.64876 47.746111 101.55469 48.875 C 101.48413 49.980371 101.39102 51.132586 101.27344 52.332031 C 99.697692 52.426105 98.109026 52.544436 96.509766 52.685547 C 94.910505 52.826658 93.347064 52.966311 91.818359 53.107422 L 91.818359 46.511719 C 91.818359 46.205978 91.711667 45.946042 91.5 45.734375 C 91.288333 45.522708 91.018712 45.417969 90.689453 45.417969 C 90.383712 45.417969 90.112138 45.522708 89.876953 45.734375 C 89.665286 45.946042 89.560547 46.205978 89.560547 46.511719 L 89.560547 53.355469 C 86.503138 53.684728 83.880583 54.026128 81.693359 54.378906 C 81.387619 54.425944 81.141274 54.577234 80.953125 54.835938 C 80.788499 55.071123 80.728357 55.354334 80.775391 55.683594 C 80.822428 55.989334 80.975671 56.224042 81.234375 56.388672 C 81.493079 56.553298 81.776291 56.611486 82.082031 56.564453 C 83.140365 56.376304 84.304218 56.199786 85.574219 56.035156 C 86.84422 55.847008 88.172954 55.670489 89.560547 55.505859 L 89.560547 59.951172 C 89.560547 63.455433 90.489692 66.054712 92.347656 67.748047 C 93.594139 68.876936 95.27591 69.617925 97.392578 69.970703 C 99.532767 70.32348 102.39003 70.311844 105.96484 69.935547 C 106.2941 69.88851 106.55209 69.746904 106.74023 69.511719 C 106.95187 69.253015 107.03528 68.971756 106.98828 68.666016 C 106.96476 68.360274 106.82315 68.111976 106.56445 67.923828 C 106.32927 67.712165 106.05769 67.630701 105.75195 67.677734 C 102.50639 68.006994 99.967258 68.053545 98.132812 67.818359 C 96.321885 67.583174 94.90005 67.007066 93.865234 66.089844 C 92.501159 64.86688 91.818359 62.820433 91.818359 59.951172 L 91.818359 55.259766 C 93.300027 55.095136 94.816917 54.95353 96.369141 54.835938 C 97.921364 54.694827 99.473168 54.57845 101.02539 54.484375 C 100.86076 55.636784 100.68425 56.765723 100.49609 57.871094 C 100.30795 58.976465 100.09651 60.010349 99.861328 60.974609 C 99.790773 61.28035 99.825686 61.563562 99.966797 61.822266 C 100.13143 62.08097 100.36809 62.245851 100.67383 62.316406 C 100.97957 62.386962 101.26082 62.350096 101.51953 62.208984 C 101.77824 62.044354 101.95475 61.809647 102.04883 61.503906 C 102.30753 60.469091 102.5306 59.340151 102.71875 58.117188 C 102.93042 56.894223 103.11858 55.648907 103.2832 54.378906 C 104.5532 54.308352 105.80047 54.259848 107.02344 54.236328 C 108.2464 54.189288 109.41025 54.177652 110.51562 54.201172 C 110.84489 54.201172 111.11451 54.096432 111.32617 53.884766 C 111.53784 53.64958 111.64453 53.378007 111.64453 53.072266 C 111.64453 52.766525 111.53784 52.508542 111.32617 52.296875 C 111.11451 52.061688 110.84488 51.954996 110.51562 51.978516 C 109.45729 51.978516 108.33999 52.001795 107.16406 52.048828 C 105.98814 52.095865 104.77774 52.156007 103.53125 52.226562 C 103.64884 51.097673 103.74194 49.992009 103.8125 48.910156 C 103.88304 47.828304 103.92959 46.829332 103.95312 45.912109 C 103.97665 45.582849 103.88354 45.311276 103.67188 45.099609 C 103.46021 44.887944 103.20028 44.771567 102.89453 44.748047 z M 107.16406 45.417969 C 106.92888 45.417969 106.71744 45.522708 106.5293 45.734375 C 106.36465 45.899004 106.29287 46.110437 106.31641 46.369141 C 106.33993 46.604326 106.44662 46.80412 106.63477 46.96875 C 107.03458 47.298009 107.50595 47.75774 108.04688 48.345703 C 108.5878 48.910148 109.01067 49.3912 109.31641 49.791016 C 109.48104 49.979161 109.69247 50.097491 109.95117 50.144531 C 110.20988 50.16805 110.44458 50.098224 110.65625 49.933594 C 110.84438 49.745446 110.95108 49.520423 110.97461 49.261719 C 111.02165 48.979496 110.94987 48.744789 110.76172 48.556641 C 110.52654 48.297937 110.222 47.981765 109.8457 47.605469 C 109.49292 47.229172 109.13988 46.864497 108.78711 46.511719 C 108.43433 46.135422 108.12785 45.85221 107.86914 45.664062 C 107.65747 45.499432 107.42276 45.417969 107.16406 45.417969 z M 36.787109 55.613281 L 37.068359 55.613281 C 36.762619 57.259579 36.304841 58.799744 35.693359 60.234375 C 35.105396 61.669006 34.410958 62.951189 33.611328 64.080078 C 32.717623 61.751743 32.176429 59.152464 31.988281 56.283203 C 32.740874 56.071536 33.516776 55.906655 34.316406 55.789062 C 35.116036 55.64795 35.940442 55.589761 36.787109 55.613281 z M 29.835938 57.128906 C 30.071123 60.374464 30.800473 63.338418 32.023438 66.019531 C 31.082695 66.983791 30.095362 67.736417 29.060547 68.277344 C 28.025732 68.81827 26.980209 69.087891 25.921875 69.087891 C 25.122245 69.087891 24.485996 68.876458 24.015625 68.453125 C 23.568772 68.029791 23.345703 67.314031 23.345703 66.302734 C 23.345703 64.350696 23.945086 62.573869 25.144531 60.974609 C 26.343977 59.351831 27.907417 58.069648 29.835938 57.128906 z "
       d="m 32.541016,41.429687 c -0.469725,-0.108398 -0.99338,-0.02587 -1.402344,0.234375 -0.413836,0.263354 -0.710595,0.723786 -0.785156,1.205079 -8.5e-5,5.47e-4 8.4e-5,0.0014 0,0.002 -0.162163,0.699462 -0.304819,1.391382 -0.421875,2.070312 h 0.002 l -0.251953,1.453125 c -2.362123,0.112865 -4.553401,0.159674 -6.451172,0.0957 l 0.03125,0.002 c -0.484081,-0.03724 -0.990478,0.140782 -1.353516,0.466797 -0.358349,0.320387 -0.555685,0.793982 -0.589844,1.263672 -0.03586,0.483136 0.140344,0.989053 0.464844,1.34961 a 0.72648887,0.72648887 0 0 0 0.02539,0.02734 c 0.326211,0.32621 0.774251,0.529057 1.234375,0.564453 a 0.72648887,0.72648887 0 0 0 0.03125,0.002 c 1.825953,0.06296 3.927048,0.009 6.146484,-0.09375 -0.0635,0.691757 -0.128659,1.384078 -0.179687,2.064453 a 0.72648887,0.72648887 0 0 0 0,0.01758 c -0.04005,0.800878 -0.04146,1.57676 -0.03125,2.345703 -1.490601,0.684929 -2.877828,1.538417 -4.125,2.607422 -1.358326,1.160973 -2.454573,2.516216 -3.273438,4.054687 a 0.72648887,0.72648887 0 0 0 -0.0059,0.0078 c -0.806677,1.562938 -1.208985,3.28773 -1.208985,5.132812 0,1.839413 0.478324,3.333859 1.539063,4.308594 a 0.72648887,0.72648887 0 0 0 0.0078,0.0059 c 1.038029,0.928762 2.409,1.384766 3.978516,1.384766 1.355754,0 2.68924,-0.308265 3.976562,-0.914062 a 0.72648887,0.72648887 0 0 0 0.0059,-0.0039 c 1.043349,-0.50161 1.996223,-1.248062 2.933594,-2.033203 0.06757,0.103383 0.133857,0.207169 0.193359,0.326172 a 0.72648887,0.72648887 0 0 0 0.03711,0.06641 c 0.257466,0.404589 0.686317,0.702551 1.154297,0.810547 a 0.72648887,0.72648887 0 0 0 0.05273,0.01172 c 0.461365,0.07098 0.953727,-0.02933 1.349609,-0.28125 0.404371,-0.25733 0.689365,-0.707883 0.771484,-1.181641 0.09898,-0.462543 0.02473,-0.973979 -0.230468,-1.375 l -0.482422,-0.753906 -0.197266,-0.365234 c 0.996856,-1.306582 1.875807,-2.773876 2.601563,-4.445313 0.721621,-1.614487 1.243892,-3.355373 1.628906,-5.183594 1.092448,0.257011 2.025888,0.610761 2.710937,1.107422 a 0.72648887,0.72648887 0 0 0 0.0059,0.0059 c 0.878621,0.621463 1.491676,1.334964 1.880859,2.154297 a 0.72648887,0.72648887 0 0 0 0.0039,0.0059 c 0.401826,0.824801 0.595703,1.660649 0.595703,2.539062 0,0.878413 -0.196121,1.759189 -0.605468,2.664063 -0.397843,0.879439 -1.033441,1.713257 -1.933594,2.503906 -0.855939,0.748946 -1.99569,1.392709 -3.435547,1.910156 l 0.0332,-0.0098 c -0.471033,0.144933 -0.887121,0.492992 -1.107422,0.933594 a 0.72648887,0.72648887 0 0 0 -0.01953,0.04492 c -0.179681,0.431229 -0.195968,0.926579 -0.05859,1.373047 a 0.72648887,0.72648887 0 0 0 0.02344,0.06641 c 0.174789,0.419494 0.509688,0.780118 0.923828,0.972656 0.430972,0.211251 0.946217,0.252276 1.404297,0.111328 a 0.72648887,0.72648887 0 0 0 0.0293,-0.0078 c 1.928646,-0.683571 3.525067,-1.585321 4.765625,-2.724609 1.238703,-1.139607 2.163762,-2.402027 2.75,-3.777344 0.5981,-1.348226 0.90625,-2.707331 0.90625,-4.060547 0,-1.792791 -0.474692,-3.457952 -1.414063,-4.933593 -0.922999,-1.487054 -2.28879,-2.664786 -4.033203,-3.513672 l -0.0039,-0.002 c -1.770486,-0.884349 -3.89408,-1.308594 -6.351563,-1.308594 -1.358654,0 -2.707984,0.202251 -4.048828,0.517578 0.02704,-1.100814 0.08843,-2.235795 0.216797,-3.431641 1.147281,-0.102502 2.282837,-0.20834 3.380859,-0.328125 1.322321,-0.141677 2.527721,-0.308077 3.623047,-0.498046 9.08e-4,-1.3e-4 0.001,-0.0018 0.002,-0.002 0.496742,-0.07177 0.977454,-0.359936 1.248047,-0.785156 0.250534,-0.393688 0.354647,-0.885254 0.283203,-1.349609 -0.0746,-0.484879 -0.374193,-0.944268 -0.787109,-1.207031 -0.395884,-0.251932 -0.888242,-0.352234 -1.349609,-0.28125 a 0.72648887,0.72648887 0 0 0 -0.01172,0.002 c -0.949241,0.162065 -2.01597,0.315183 -3.205078,0.455078 a 0.72648887,0.72648887 0 0 0 -0.002,0 c -0.865313,0.103837 -1.77241,0.194383 -2.677735,0.285156 0.0418,-0.255151 0.08336,-0.50365 0.125,-0.763672 0.115663,-0.578317 0.243717,-1.156764 0.382813,-1.736328 a 0.72648887,0.72648887 0 0 0 0.01172,-0.05859 c 0.07011,-0.455736 -0.03722,-0.943319 -0.296875,-1.322265 -0.258422,-0.397281 -0.678218,-0.694073 -1.140625,-0.800782 z m 77.238284,0.63086 c -1.09185,0.392388 -0.13138,-0.453721 -1.15039,0.550781 -0.42173,1.158803 -0.52698,-0.344 -0.34375,1.291016 -0.0584,0.44556 1.11935,1.529111 0.60547,1.011718 0.38247,0.276234 0.85576,0.679406 1.40429,1.205079 a 0.72648887,0.72648887 0 0 0 0.01,0.0098 c 0.5727,0.526894 1.0129,0.97688 1.30859,1.335938 a 0.72648887,0.72648887 0 0 0 0.0469,0.05273 c 0.29406,0.294074 0.69871,0.489298 1.11718,0.527344 a 0.72648887,0.72648887 0 0 0 0.0664,0.0039 c 0.4112,0 0.83553,-0.15197 1.14844,-0.425781 a 0.72648887,0.72648887 0 0 0 0.0352,-0.0332 c 0.2983,-0.298294 0.47267,-0.729064 0.48243,-1.154297 0.0277,-0.446682 -0.12907,-0.927816 -0.44532,-1.246094 -0.2513,-0.275008 -0.55839,-0.581969 -0.93554,-0.935547 -0.38205,-0.358168 -0.7757,-0.706088 -1.18164,-1.041015 l -0.0176,-0.01367 c -0.35845,-0.312769 -0.67778,-0.561105 -0.97656,-0.765625 -0.31592,-0.273962 -0.76097,-0.400322 -1.17383,-0.373047 z m -44.798831,1.185547 c -0.476598,0.11914 -0.910611,0.455117 -1.13086,0.892578 -0.403527,0.75989 -0.922677,1.767231 -1.55664,3.035156 -0.636401,1.24932 -1.341284,2.662959 -2.117188,4.238281 a 0.72648887,0.72648887 0 0 0 -0.002,0.0039 C 59.422,52.96666 58.635016,54.575606 57.8125,56.244141 a 0.72648887,0.72648887 0 0 0 -0.002,0.0059 c -0.798974,1.668446 -1.589559,3.303983 -2.365235,4.902344 a 0.72648887,0.72648887 0 0 0 -0.0039,0.0078 c -0.753183,1.600516 -1.432983,3.058931 -2.044922,4.376953 -0.61089,1.315761 -1.116594,2.395227 -1.515625,3.240235 a 0.72648887,0.72648887 0 0 0 -0.01367,0.03125 c -0.180138,0.432326 -0.196224,0.9277 -0.05859,1.375 a 0.72648887,0.72648887 0 0 0 0.02344,0.06641 c 0.183133,0.439519 0.550718,0.807103 0.990235,0.990234 0.42578,0.177411 0.91984,0.200548 1.357421,0.05469 a 0.72648887,0.72648887 0 0 0 0.03125,-0.01172 c 0.458317,-0.176276 0.853293,-0.542819 1.042969,-0.998047 0.305383,-0.704746 0.679765,-1.572444 1.125,-2.603515 l -0.0039,0.01367 c 0.468628,-1.030982 0.947634,-2.084766 1.439453,-3.162109 0.928329,-1.947226 1.992993,-3.310159 3.150391,-4.130859 1.196752,-0.848607 2.356067,-1.240235 3.53125,-1.240235 0.518066,0 0.896958,0.08025 1.134765,0.189453 0.237808,0.109204 0.344114,0.220163 0.425782,0.402344 0.180921,0.403593 0.200409,1.311859 -0.177735,2.646485 a 0.72648887,0.72648887 0 0 0 0,0.002 c -0.490395,1.765421 -0.625957,3.277694 -0.326172,4.558593 a 0.72648887,0.72648887 0 0 0 0.0039,0.01367 c 0.317936,1.245255 0.996001,2.264263 1.99414,2.929688 a 0.72648887,0.72648887 0 0 0 0.01953,0.01367 c 1.007646,0.626374 2.234445,0.919922 3.628907,0.919922 1.946649,0 3.676254,-0.666056 5.048828,-1.960938 a 0.72648887,0.72648887 0 0 0 0.0059,-0.0059 c 1.360762,-1.30941 2.491015,-3.247753 3.455078,-5.800782 v -0.002 c 0.175056,-0.456718 0.151348,-0.994922 -0.06055,-1.4375 -0.185601,-0.426335 -0.560291,-0.779052 -1,-0.935547 -0.443342,-0.175467 -0.967388,-0.154685 -1.396484,0.05078 -0.429192,0.186296 -0.792776,0.540941 -0.972656,0.972656 a 0.72648887,0.72648887 0 0 0 -0.01172,0.02539 c -0.802769,2.156007 -1.653255,3.611922 -2.425781,4.345703 -5.19e-4,4.93e-4 -0.0014,0.0015 -0.002,0.002 -0.800898,0.736409 -1.642116,1.070312 -2.640625,1.070312 -1.079602,0 -1.599295,-0.266605 -1.886719,-0.716797 -0.255008,-0.421092 -0.328877,-1.446903 0.117187,-3.052734 0.64016,-2.289804 0.636457,-4.187937 -0.21875,-5.613281 -0.85664,-1.451538 -2.524411,-2.152344 -4.644531,-2.152344 -0.836613,0 -1.685884,0.191288 -2.535156,0.550781 -0.09568,0.03785 -0.180547,0.118782 -0.275391,0.160157 0.484686,-0.984534 0.974681,-1.988425 1.451172,-2.941407 0.821923,-1.643846 1.571893,-3.122327 2.251953,-4.435547 a 0.72648887,0.72648887 0 0 0 0.002,-0.0039 c 0.679291,-1.335156 1.219314,-2.352672 1.609375,-3.041015 a 0.72648887,0.72648887 0 0 0 0.0059,-0.0098 c 0.220572,-0.404374 0.252434,-0.911699 0.117187,-1.351563 -0.114514,-0.45336 -0.392741,-0.874748 -0.789062,-1.126953 -0.414079,-0.263505 -0.955353,-0.317106 -1.423828,-0.18164 z m 61.841801,0 c -0.47604,0.11891 -0.91139,0.452788 -1.13282,0.892578 -0.40397,0.760746 -0.92099,1.767764 -1.55468,3.035156 -0.63614,1.248785 -1.34303,2.662525 -2.11914,4.238281 a 0.72648887,0.72648887 0 0 0 -0.002,0.0039 c -0.75182,1.550641 -1.53882,3.159587 -2.36133,4.828125 a 0.72648887,0.72648887 0 0 0 -0.002,0.0059 c -0.79918,1.668864 -1.58782,3.304411 -2.36328,4.902344 a 0.72648887,0.72648887 0 0 0 -0.004,0.0078 c -0.75298,1.600081 -1.43468,3.0584 -2.04687,4.376953 -0.61089,1.31576 -1.11659,2.39523 -1.51563,3.240235 a 0.72648887,0.72648887 0 0 0 -0.0137,0.03125 c -0.18015,0.432339 -0.19623,0.927703 -0.0586,1.375 a 0.72648887,0.72648887 0 0 0 0.0234,0.06641 c 0.18313,0.43953 0.55072,0.807104 0.99023,0.990234 0.42578,0.177412 0.91984,0.200549 1.35742,0.05469 a 0.72648887,0.72648887 0 0 0 0.0312,-0.01172 c 0.45832,-0.176277 0.85329,-0.542836 1.04297,-0.998047 0.30538,-0.704746 0.67977,-1.572444 1.125,-2.603515 l -0.004,0.01367 c 0.46864,-1.030987 0.94764,-2.084767 1.43946,-3.162109 0.92833,-1.947226 1.99299,-3.310159 3.15039,-4.130859 1.19675,-0.848607 2.35606,-1.240235 3.53125,-1.240235 0.51806,0 0.89696,0.08025 1.13476,0.189453 0.23781,0.109204 0.34412,0.220164 0.42578,0.402344 0.18093,0.40359 0.20042,1.31186 -0.17773,2.646485 a 0.72648887,0.72648887 0 0 0 0,0.002 c -0.49039,1.765421 -0.62595,3.277697 -0.32617,4.558593 a 0.72648887,0.72648887 0 0 0 0.004,0.01367 c 0.31795,1.245247 0.996,2.264261 1.99414,2.929688 a 0.72648887,0.72648887 0 0 0 0.0195,0.01367 c 1.00765,0.626373 2.23445,0.919922 3.6289,0.919922 1.94666,0 3.67626,-0.666058 5.04883,-1.960938 a 0.72648887,0.72648887 0 0 0 0.006,-0.0059 c 1.36076,-1.30941 2.49102,-3.247753 3.45508,-5.800782 v -0.002 c 0.17503,-0.456691 0.15135,-0.994904 -0.0606,-1.4375 -0.1856,-0.42632 -0.56029,-0.779051 -1,-0.935547 -0.44334,-0.175462 -0.96739,-0.154687 -1.39648,0.05078 -0.42919,0.186298 -0.79277,0.540958 -0.97266,0.972656 a 0.72648887,0.72648887 0 0 0 -0.0117,0.02539 c -0.80277,2.156008 -1.65326,3.611923 -2.42578,4.345703 -5.2e-4,4.93e-4 -0.001,0.0015 -0.002,0.002 -0.80091,0.736412 -1.64211,1.070312 -2.64063,1.070312 -1.07959,0 -1.5993,-0.266607 -1.88672,-0.716797 -0.255,-0.421099 -0.32887,-1.446907 0.11719,-3.052734 0.64005,-2.289417 0.63871,-4.18743 -0.2168,-5.613281 -0.85694,-1.45204 -2.52637,-2.152344 -4.64648,-2.152344 -0.83661,0 -1.68588,0.191288 -2.53516,0.550781 -0.095,0.03757 -0.17933,0.117159 -0.27343,0.158203 0.48383,-0.983917 0.97315,-1.987321 1.44922,-2.939453 0.82193,-1.64385 1.57189,-3.122329 2.25195,-4.435547 a 0.72648887,0.72648887 0 0 0 0.002,-0.0039 c 0.6793,-1.335158 1.21932,-2.352671 1.60938,-3.041015 a 0.72648887,0.72648887 0 0 0 0.004,-0.0098 c 0.22064,-0.404416 0.25438,-0.91173 0.11914,-1.351563 -0.11452,-0.453352 -0.39274,-0.874747 -0.78906,-1.126953 -0.4127,-0.262621 -0.95418,-0.316828 -1.42187,-0.18164 z m -23.92774,0.77539 c -0.80174,0.02002 -1.28321,0.48296 -1.32422,0.529297 -0.53986,0.561112 -0.56899,1.217053 -0.5664,1.269531 -0.0231,0.87663 -0.0807,1.876371 -0.17383,2.994141 a 0.72648887,0.72648887 0 0 0 0,0.01367 c -0.0576,0.902828 -0.14137,1.859227 -0.23047,2.826172 -1.377083,0.08759 -2.760204,0.185586 -4.154298,0.308594 -1.329508,0.117309 -2.61909,0.234532 -3.90039,0.351562 v -5.802734 c 0,-0.474735 -0.195624,-0.95539 -0.53125,-1.291016 -0.34504,-0.34504 -0.840909,-0.529297 -1.324219,-0.529297 -0.471641,0 -0.945531,0.185939 -1.298828,0.503906 a 0.72648887,0.72648887 0 0 0 -0.02734,0.02539 c -0.337206,0.337206 -0.529297,0.819374 -0.529297,1.291016 v 6.205078 c -2.749893,0.305035 -5.232095,0.618899 -7.255859,0.945312 -0.477524,0.07475 -0.92745,0.353614 -1.212891,0.746094 a 0.72648887,0.72648887 0 0 0 -0.0078,0.01172 c -0.274072,0.39154 -0.36832,0.894384 -0.300781,1.367187 a 0.72648887,0.72648887 0 0 0 0,0.0078 c 0.0746,0.484877 0.374194,0.944267 0.787109,1.207031 0.395881,0.251919 0.888251,0.352222 1.349609,0.28125 a 0.72648887,0.72648887 0 0 0 0.01563,-0.0039 c 1.045061,-0.185789 2.198524,-0.360044 3.458985,-0.523438 a 0.72648887,0.72648887 0 0 0 0.01367,-0.002 c 1.003804,-0.148711 2.073535,-0.285817 3.152343,-0.419922 v 3.617188 c 0,3.632662 0.981058,6.472574 3.023438,8.333984 a 0.72648887,0.72648887 0 0 0 0.002,0.002 c 1.370218,1.240951 3.196238,2.030754 5.414062,2.400391 a 0.72648887,0.72648887 0 0 0 0.002,0 c 2.245087,0.370068 5.152289,0.351055 8.765629,-0.0293 a 0.72648887,0.72648887 0 0 0 0.0273,-0.0039 c 0.47783,-0.06826 0.93466,-0.311636 1.23633,-0.6875 0.30751,-0.37777 0.45983,-0.893935 0.39453,-1.382813 -0.0455,-0.473042 -0.30963,-0.922034 -0.68555,-1.210937 -0.37166,-0.317963 -0.89188,-0.488082 -1.37304,-0.414063 l 0.0371,-0.0039 c -3.21355,0.326014 -5.712643,0.365245 -7.451168,0.142578 h -0.002 c -1.706578,-0.221933 -2.97485,-0.751801 -3.875,-1.548828 l -0.002,-0.002 c -1.152741,-1.034792 -1.802734,-2.84315 -1.802734,-5.595703 v -4.029297 c 1.271259,-0.134675 2.555515,-0.261072 3.878906,-0.361328 a 0.72648887,0.72648887 0 0 0 0.01172,-0.002 c 1.243757,-0.113069 2.486379,-0.198806 3.730473,-0.28125 -0.12476,0.831952 -0.249454,1.66625 -0.386723,2.472656 -0.185606,1.090483 -0.392439,2.10723 -0.623047,3.052734 a 0.72648887,0.72648887 0 0 0 -0.002,0.0078 c -0.104461,0.45267 -0.04988,0.949236 0.173828,1.359375 a 0.72648887,0.72648887 0 0 0 0.02539,0.04297 c 0.258865,0.406779 0.688934,0.702704 1.156254,0.810546 0.45486,0.104971 0.95111,0.04584 1.35742,-0.175781 a 0.72648887,0.72648887 0 0 0 0.043,-0.02539 c 0.39628,-0.252172 0.69357,-0.655504 0.83203,-1.105469 a 0.72648887,0.72648887 0 0 0 0.0117,-0.03711 c 0.26502,-1.060093 0.49254,-2.209328 0.68359,-3.451171 l -0.004,0.01172 c 0.17895,-1.033875 0.33299,-2.091833 0.47852,-3.158203 1.05596,-0.0531 2.10383,-0.0995 3.125,-0.11914 a 0.72648887,0.72648887 0 0 0 0.0137,0 c 1.20987,-0.04654 2.35979,-0.05834 3.44922,-0.03516 a 0.72648887,0.72648887 0 0 0 0.0156,0 c 0.48331,0 0.97918,-0.18425 1.32421,-0.529297 a 0.72648887,0.72648887 0 0 0 0.0254,-0.02734 c 0.31649,-0.351647 0.50586,-0.824097 0.50586,-1.298828 0,-0.466955 -0.19928,-0.93433 -0.52343,-1.267579 -0.34442,-0.373177 -0.87796,-0.586984 -1.38477,-0.550781 -1.05408,7.22e-4 -2.16189,0.02171 -3.32812,0.06836 -0.91055,0.03642 -1.85921,0.0879 -2.81055,0.138671 0.0795,-0.843084 0.15963,-1.687242 0.21289,-2.503906 0.0703,-1.078147 0.11657,-2.072383 0.14062,-2.992187 0.0353,-0.493491 -0.13617,-1.022881 -0.49218,-1.378907 -0.32779,-0.327779 -0.77731,-0.52734 -1.23438,-0.5625 a 0.72648887,0.72648887 0 0 0 -0.0566,-0.002 z m 4.26953,0.669922 c -0.4427,0 -0.86757,0.235152 -1.15625,0.550781 -0.29886,0.310147 -0.45222,0.773959 -0.41406,1.19336 a 0.72648887,0.72648887 0 0 0 0,0.0059 c 0.0411,0.411086 0.25757,0.807411 0.5625,1.074219 a 0.72648887,0.72648887 0 0 0 0.0176,0.01367 c 0.35995,0.296434 0.81158,0.736525 1.33789,1.308594 a 0.72648887,0.72648887 0 0 0 0.01,0.0098 c 0.52912,0.552132 0.93855,1.018348 1.21875,1.384766 a 0.72648887,0.72648887 0 0 0 0.0293,0.03711 c 0.2682,0.306509 0.64966,0.516907 1.05078,0.589844 a 0.72648887,0.72648887 0 0 0 0.0645,0.0078 c 0.42726,0.03884 0.87829,-0.0961 1.21679,-0.359375 a 0.72648887,0.72648887 0 0 0 0.0684,-0.06055 c 0.28806,-0.28809 0.46872,-0.683323 0.51367,-1.089844 0.0679,-0.458452 -0.0786,-0.981942 -0.4082,-1.3125 -0.23968,-0.262735 -0.53708,-0.571855 -0.90039,-0.935547 l -0.0156,-0.01758 c -0.34714,-0.369918 -0.69546,-0.7283 -1.04297,-1.076172 -0.36715,-0.391618 -0.69125,-0.697144 -1.00586,-0.927734 -0.32489,-0.251441 -0.73675,-0.396485 -1.14649,-0.396485 z M 36.083984,56.388672 c -0.283841,1.237987 -0.589104,2.459051 -1.058593,3.560547 a 0.72648887,0.72648887 0 0 0 -0.0039,0.0098 c -0.34313,0.83724 -0.792567,1.506351 -1.207031,2.230469 -0.49425,-1.652442 -0.854652,-3.414211 -1.019531,-5.335937 0.534589,-0.130021 1.066851,-0.263335 1.626953,-0.345704 a 0.72648887,0.72648887 0 0 0 0.02148,-0.0039 c 0.528791,-0.09332 1.086303,-0.09885 1.640625,-0.115234 z m -6.794922,1.943359 c 0.296313,2.6575 0.90648,5.146927 1.882813,7.433594 -0.794795,0.76291 -1.603999,1.426388 -2.447266,1.867187 -0.944617,0.493778 -1.867775,0.728516 -2.802734,0.728516 -0.666008,0 -1.091305,-0.161874 -1.408203,-0.443359 -0.236254,-0.226672 -0.441406,-0.715087 -0.441406,-1.615235 0,-1.803336 0.540114,-3.407001 1.654296,-4.892578 a 0.72648887,0.72648887 0 0 0 0.002,-0.0039 c 0.931614,-1.260418 2.153076,-2.246647 3.560546,-3.074219 z"
       transform="matrix(1.1358945,0,0,1.1358945,-11.011655,-9.9400112)" />
    <text
       xml:space="preserve"
       style="font-style:normal;font-variant:normal;font-weight:normal;font-stretch:normal;font-size:51.2377px;font-family:Hannari;-inkscape-font-specification:'Hannari, Normal';font-variant-ligatures:normal;font-variant-caps:normal;font-variant-numeric:normal;font-variant-east-asian:normal;fill:#000000;stroke:#000000;stroke-width:0.670343;stroke-linejoin:round;stroke-miterlimit:10;stroke-opacity:1"
       x="28.605297"
       y="121.42457"
       id="text2"><tspan
         sodipodi:role="line"
         id="tspan2"
         style="font-style:normal;font-variant:normal;font-weight:normal;font-stretch:normal;font-size:51.2377px;font-family:'Yuji Mai';-inkscape-font-specification:'Yuji Mai, Normal';font-variant-ligatures:normal;font-variant-caps:normal;font-variant-numeric:normal;font-variant-east-asian:normal;stroke:#000000;stroke-width:0.670342;stroke-opacity:1"
         x="28.605297"
         y="121.42457">京都</tspan></text>
  </g>
</svg>
